<svg width="165" height="26" viewBox="0 0 165 26" fill="none" xmlns="http://www.w3.org/2000/svg">
<g clip-path="url(#clip0_5111_40965)">
<path fill-rule="evenodd" clip-rule="evenodd" d="M6.2405 21.9451C7.75229 22.5603 9.57822 22.1892 10.7268 21.076C11.198 20.617 11.5514 20.0408 11.7576 19.4256L21.918 19.3768V24.5427C21.9474 25.07 22.5855 25.2849 22.9193 24.9919C23.0371 24.8845 23.1058 24.8063 23.1254 24.5427V1.20336C23.1156 1.05688 23.0665 0.910402 22.9684 0.802983C22.88 0.705329 22.8211 0.646736 22.5855 0.607674C22.2026 0.588144 21.9278 0.861575 21.9081 1.20336V3.90838H15.3112C15.2523 3.90838 15.2327 3.90838 15.1738 3.92791C15.0167 3.96697 14.8695 4.10369 14.8695 4.10369L9.1561 10.1875H3.37399C3.16784 10.1973 2.98132 10.295 2.87333 10.4512C2.84388 10.5 2.83406 10.5098 2.81443 10.5684L0.517296 16.4276C0.487845 16.5253 0.478027 16.5448 0.478027 16.6425L0.674364 18.869C0.693997 19.201 0.959051 19.4549 1.28301 19.4744L3.88446 19.4647C4.22805 20.451 5.1312 21.4959 6.2405 21.9451ZM7.79156 15.1679C7.80137 15.1679 7.82101 15.1679 7.83082 15.1679C9.61749 15.1874 10.9722 16.8866 10.7366 18.5174C10.5697 19.7283 9.5684 20.7635 8.37075 20.9978C6.25032 21.3982 4.52256 19.3377 4.91523 17.5018C5.19992 16.1835 6.45647 15.1777 7.79156 15.1679ZM7.83082 16.2519C7.81119 16.2519 7.81119 16.2519 7.78174 16.2519C6.89823 16.2714 6.10306 16.955 5.96563 17.8046C5.77911 18.8983 6.73134 19.9627 7.80137 19.9627C8.6947 19.9627 9.52913 19.2401 9.64694 18.3612C9.81382 17.2967 8.89104 16.2714 7.83082 16.2519ZM26.0312 16.8573C25.5993 16.8573 25.1575 16.8475 24.7256 16.8573C24.4605 16.8671 24.2249 17.1014 24.2249 17.3553C24.2151 17.7948 24.2151 18.2342 24.2249 18.6737C24.2347 18.9373 24.4703 19.1717 24.7256 19.1717C25.1673 19.1815 25.5993 19.1815 26.041 19.1717C26.3061 19.1619 26.5417 18.9276 26.5417 18.6737C26.5515 18.2342 26.5417 17.8046 26.5417 17.3651C26.5417 17.1014 26.2963 16.8671 26.0312 16.8573ZM36.0542 16.5058C35.583 16.5058 35.1118 16.5058 34.6504 16.5058C34.3657 16.5155 34.1104 16.7597 34.1006 17.0428C34.0908 17.5116 34.1006 17.9803 34.1006 18.4393C34.1104 18.7225 34.3559 18.9764 34.6406 18.9862C35.1118 18.9959 35.583 18.9862 36.0542 18.9862C36.3389 18.9764 36.5941 18.7323 36.6039 18.4491C36.6137 17.9803 36.6137 17.5116 36.6039 17.0428C36.5941 16.7499 36.3487 16.5058 36.0542 16.5058ZM7.80137 17.453C8.05661 17.453 8.29221 17.5995 8.4002 17.8241C8.74379 18.537 7.76211 18.9764 7.3498 18.576C6.93749 18.1756 7.30072 17.4628 7.80137 17.453ZM25.0986 17.7264C25.2851 17.7264 25.4815 17.7264 25.668 17.7264V18.3026H25.0986V17.7264ZM21.9081 11.4082V18.1756L11.9637 18.2245C11.9735 17.9217 11.9539 17.6092 11.895 17.3065C11.5219 15.4413 9.73529 13.9863 7.84064 13.9765C7.22218 13.9765 6.61354 14.1035 6.05398 14.3671C4.58146 15.0507 3.60959 16.662 3.64886 18.2733L1.87202 18.2831L1.67568 16.7694L2.88315 13.6738L7.56577 11.418H21.9081V11.4082ZM34.9743 17.3749C35.2296 17.3749 35.475 17.3749 35.7302 17.3749V18.117H34.9743V17.3749ZM30.8709 13.7128C30.3997 13.7128 29.9285 13.7128 29.4573 13.7128C29.1628 13.7226 28.9075 13.9765 28.8977 14.2597C28.8879 14.748 28.8977 15.2265 28.8977 15.7148C28.9075 16.0077 29.1628 16.2616 29.4475 16.2714C29.9187 16.2811 30.3899 16.2714 30.8709 16.2714C31.1654 16.2616 31.4206 16.0077 31.4305 15.7245C31.4403 15.2362 31.4305 14.7577 31.4305 14.2695C31.4305 13.9765 31.1654 13.7226 30.8709 13.7128ZM41.1687 13.6543C40.6681 13.6543 40.1674 13.6543 39.6668 13.6543C39.3723 13.664 39.117 13.9179 39.1072 14.2011C39.0974 14.6699 39.1072 15.1484 39.1072 15.6171C39.117 15.9101 39.3723 16.164 39.6569 16.1737C40.1576 16.1835 40.6681 16.1737 41.1687 16.1737C41.4632 16.164 41.7185 15.9101 41.7283 15.6269C41.7381 15.1581 41.7283 14.6796 41.7283 14.2109C41.7185 13.9082 41.4632 13.6543 41.1687 13.6543ZM29.7812 14.582C30.0365 14.582 30.3015 14.582 30.5568 14.582V15.3925H29.7812V14.582ZM39.9809 14.5234C40.2656 14.5234 40.5601 14.5234 40.8448 14.5234V15.2948H39.9809V14.5234ZM20.9755 13.0488C21.1424 13.0488 21.3093 12.9707 21.4173 12.8535C21.7511 12.4922 21.4566 11.8672 20.9952 11.8477C20.3276 11.8379 19.6601 11.8477 18.9827 11.8477C18.8846 11.8477 18.7962 11.8672 18.7079 11.916C18.1483 12.1992 18.4526 13.039 18.9827 13.0488H20.9755V13.0488ZM26.0116 9.39654C25.4815 9.39654 24.9415 9.38677 24.4114 9.39654C24.0875 9.4063 23.8028 9.6895 23.793 10.0118C23.7832 10.5489 23.7832 11.086 23.793 11.6231C23.8028 11.9453 24.0875 12.2285 24.4114 12.2383C24.9514 12.248 25.4913 12.248 26.0214 12.2383C26.3453 12.2285 26.63 11.9453 26.6398 11.6231C26.6497 11.086 26.6398 10.5489 26.6398 10.0118C26.63 9.6895 26.3453 9.4063 26.0116 9.39654ZM4.82688 11.3887L3.53106 12.0137L3.77648 11.3887H4.82688ZM32.0096 9.84575C31.6562 9.84575 31.3028 9.84575 30.9494 9.84575C30.7433 9.85551 30.5666 10.0215 30.5469 10.2168C30.5077 10.5782 30.5371 10.9395 30.5469 11.3106C30.5568 11.5156 30.7236 11.6914 30.92 11.7109C31.2734 11.75 31.6464 11.7207 32.0096 11.7109C32.2158 11.7012 32.3925 11.5352 32.4121 11.3399C32.4514 10.9785 32.422 10.6172 32.4121 10.2461C32.4023 10.0313 32.2158 9.85551 32.0096 9.84575ZM24.6667 10.2657C25.0299 10.2657 25.4029 10.2657 25.7661 10.2657V11.3691H24.6667V10.2657ZM35.2983 8.48835C34.9056 8.48835 34.5129 8.48835 34.1104 8.48835C33.8945 8.49812 33.708 8.6739 33.6883 8.87897C33.6491 9.25006 33.6785 9.63091 33.6883 10.0118C33.6981 10.2266 33.8748 10.4121 34.081 10.4317C34.4835 10.4707 34.8958 10.4414 35.2983 10.4317C35.5143 10.4219 35.7008 10.2461 35.7204 10.0411C35.7597 9.66997 35.7302 9.28912 35.7204 8.90827C35.7106 8.68366 35.5241 8.49812 35.2983 8.48835ZM21.9081 5.10953V10.1973H10.7955L15.5763 5.10953H21.9081ZM34.562 9.35748C34.6504 9.35748 34.7485 9.35748 34.8467 9.35748V9.55278H34.562V9.35748ZM29.0744 5.95912C28.7308 5.95912 28.3774 5.95912 28.0338 5.95912C27.8277 5.96888 27.651 6.13489 27.6313 6.3302C27.5921 6.69152 27.6215 7.05284 27.6313 7.41416C27.6412 7.61923 27.8081 7.79501 28.0044 7.81454C28.3578 7.8536 28.721 7.82431 29.0842 7.81454C29.2904 7.80478 29.4671 7.63877 29.4867 7.44346C29.526 7.08214 29.4965 6.72082 29.4867 6.3595C29.4769 6.14466 29.2904 5.96888 29.0744 5.95912ZM28.505 6.82824C28.5345 6.82824 28.5639 6.82824 28.6032 6.82824V6.93566H28.505V6.82824ZM25.0986 4.89469C24.7158 4.89469 24.3427 4.89469 23.9599 4.89469C23.7243 4.89469 23.5181 5.09976 23.5083 5.33413C23.4985 5.71498 23.5083 6.09583 23.5083 6.47668C23.5083 6.71105 23.7144 6.91612 23.95 6.92589C24.3329 6.93566 24.7158 6.92589 25.0888 6.92589C25.3244 6.92589 25.5305 6.72082 25.5404 6.48645C25.5502 6.1056 25.5404 5.72475 25.5404 5.3439C25.5404 5.10953 25.3342 4.89469 25.0986 4.89469ZM24.3918 5.76381C24.49 5.76381 24.5783 5.76381 24.6765 5.76381V6.047H24.3918V5.76381Z" fill="black"/>
<path d="M46.8428 6.55469H50.8186C51.5352 6.55469 52.1831 6.70117 52.7721 7.0039C53.3611 7.29686 53.8225 7.71677 54.1563 8.25387C54.4901 8.79097 54.657 9.40619 54.657 10.0995C54.657 10.7929 54.4901 11.4081 54.1563 11.9452C53.8225 12.4921 53.3611 12.912 52.7721 13.2049C52.1831 13.4979 51.5352 13.6541 50.8186 13.6541H48.973V17.7751H46.8428V6.55469ZM50.8775 11.6425C51.3978 11.6425 51.8101 11.496 52.1144 11.1835C52.4089 10.8808 52.566 10.5194 52.566 10.0898C52.566 9.66009 52.4187 9.29877 52.1144 9.0058C51.8199 8.71284 51.4076 8.5566 50.8775 8.5566H48.973V11.6425H50.8775V11.6425Z" fill="black"/>
<path d="M55.9825 6.55469H60.0957C60.832 6.55469 61.4799 6.70117 62.0591 7.01366C62.6285 7.31639 63.0702 7.7363 63.3942 8.2734C63.7083 8.8105 63.8654 9.41595 63.8654 10.0995C63.8654 10.8222 63.6396 11.4569 63.1782 12.0233C62.7168 12.5897 62.1474 12.9901 61.4504 13.2342L61.4308 13.3416L64.4544 17.6482V17.7751H62.01L59.0944 13.5565H58.1029V17.7751H55.9727V6.55469H55.9825ZM60.0761 11.6132C60.5571 11.6132 60.9498 11.4667 61.2541 11.1737C61.5584 10.8808 61.7155 10.5097 61.7155 10.0605C61.7155 9.63079 61.5682 9.26947 61.2836 8.96674C60.9989 8.66402 60.6062 8.50777 60.1055 8.50777H58.1029V11.6132H60.0761V11.6132Z" fill="black"/>
<path d="M64.9448 6.55469H67.0751V17.7751H64.9448V6.55469Z" fill="black"/>
<path d="M67.5562 6.55469H69.8533L72.1799 13.3221L72.5922 14.7479H72.7198L73.1616 13.3221L75.5863 6.55469H77.8834L73.7702 17.7751H71.5418L67.5562 6.55469Z" fill="black"/>
<path d="M79.896 6.55469H82.3404L86.5812 17.7751H84.235L83.2926 15.0994H78.9732L78.0308 17.7751H75.6846L79.896 6.55469ZM82.5956 13.1463L81.6041 10.3241L81.1918 8.97651H81.0642L80.6519 10.3241L79.6407 13.1463H82.5956Z" fill="black"/>
<path d="M91.8823 18.0193C90.7927 18.0193 89.7914 17.7654 88.8882 17.2478C87.9851 16.7302 87.2684 16.0271 86.758 15.1287C86.2377 14.2401 85.9824 13.244 85.9824 12.16C85.9824 11.0761 86.2475 10.08 86.758 9.19134C87.2782 8.29292 87.9851 7.58981 88.8882 7.07225C89.7914 6.55468 90.7927 6.30078 91.8823 6.30078C93.5806 6.30078 94.9943 6.916 96.1036 8.13668L94.6016 9.58196C93.8751 8.73237 92.972 8.31245 91.8922 8.31245C91.1853 8.31245 90.5473 8.4687 89.9681 8.79096C89.3889 9.11322 88.9373 9.56243 88.6035 10.1484C88.2697 10.7343 88.1127 11.4081 88.1127 12.1698C88.1127 12.9315 88.2796 13.6053 88.6035 14.1912C88.9373 14.7772 89.3889 15.2264 89.9681 15.5486C90.5473 15.8709 91.1853 16.0271 91.8922 16.0271C93.08 16.0271 94.0715 15.5389 94.8666 14.5525L96.3784 15.9783C95.8189 16.6521 95.1612 17.1599 94.4053 17.5115C93.6494 17.8435 92.8051 18.0193 91.8823 18.0193Z" fill="black"/>
<path d="M100.079 12.5506L96.2803 6.55469H98.813L101.071 10.2655H101.198L103.368 6.55469H105.94L102.2 12.5506V17.7849H100.079V12.5506Z" fill="black"/>
<path d="M124.533 18.0193C123.444 18.0193 122.442 17.7654 121.539 17.2478C120.636 16.7302 119.919 16.0271 119.409 15.1287C118.889 14.2401 118.633 13.244 118.633 12.16C118.633 11.0761 118.889 10.08 119.409 9.19134C119.929 8.29292 120.636 7.58981 121.539 7.07225C122.442 6.55468 123.444 6.30078 124.533 6.30078C126.232 6.30078 127.645 6.916 128.754 8.13668L127.262 9.58196C126.536 8.73237 125.633 8.31245 124.553 8.31245C123.846 8.31245 123.208 8.4687 122.629 8.79096C122.05 9.11322 121.598 9.56243 121.264 10.1484C120.93 10.7343 120.773 11.4081 120.773 12.1698C120.773 12.9315 120.94 13.6053 121.264 14.1912C121.598 14.7772 122.05 15.2264 122.629 15.5486C123.208 15.8709 123.846 16.0271 124.553 16.0271C125.741 16.0271 126.732 15.5389 127.527 14.5525L129.039 15.9783C128.48 16.6521 127.822 17.1599 127.066 17.5115C126.3 17.8435 125.456 18.0193 124.533 18.0193Z" fill="black"/>
<path d="M133.152 6.55469H135.597L139.838 17.7751H137.491L136.549 15.0994H132.23L131.287 17.7751H128.941L133.152 6.55469ZM135.852 13.1463L134.851 10.3241L134.438 8.97651H134.311L133.898 10.3241L132.887 13.1463H135.852Z" fill="black"/>
<path d="M140.338 6.55469H144.451C145.187 6.55469 145.835 6.70117 146.415 7.01366C146.984 7.31639 147.435 7.7363 147.75 8.2734C148.064 8.8105 148.221 9.41595 148.221 10.0995C148.221 10.8222 147.995 11.4569 147.534 12.0233C147.072 12.5897 146.503 12.9901 145.806 13.2342L145.786 13.3416L148.81 17.6482V17.7751H146.365L143.45 13.5565H142.458V17.7751H140.328V6.55469H140.338ZM144.432 11.6132C144.913 11.6132 145.305 11.4667 145.61 11.1737C145.914 10.8808 146.071 10.5097 146.071 10.0605C146.071 9.63079 145.924 9.26947 145.639 8.96674C145.354 8.66402 144.962 8.50777 144.461 8.50777H142.458V11.6132H144.432V11.6132Z" fill="black"/>
<path d="M153.257 18.0193C152.265 18.0193 151.401 17.7458 150.636 17.1892C149.88 16.6326 149.35 15.8513 149.045 14.8357L151.048 14.0545C151.205 14.6502 151.47 15.1287 151.853 15.4803C152.236 15.8318 152.707 16.0174 153.267 16.0174C153.738 16.0174 154.14 15.9002 154.484 15.6658C154.818 15.4314 154.985 15.0994 154.985 14.6893C154.985 14.2694 154.828 13.9276 154.504 13.6639C154.18 13.4002 153.61 13.117 152.795 12.8143L152.098 12.5604C151.372 12.3065 150.754 11.9257 150.243 11.4081C149.733 10.8905 149.468 10.2362 149.468 9.45501C149.468 8.86908 149.625 8.33199 149.929 7.85348C150.233 7.37498 150.665 6.99413 151.225 6.7207C151.784 6.44726 152.413 6.31055 153.119 6.31055C154.14 6.31055 154.945 6.54492 155.525 7.02342C156.114 7.50193 156.516 8.05855 156.742 8.69331L154.867 9.47454C154.749 9.13275 154.553 8.83979 154.258 8.60542C153.973 8.37105 153.6 8.25386 153.149 8.25386C152.687 8.25386 152.305 8.36128 152.01 8.57612C151.716 8.79096 151.559 9.06439 151.559 9.41595C151.559 9.74797 151.696 10.0312 151.981 10.2753C152.265 10.5097 152.727 10.7343 153.384 10.9589L154.091 11.1932C155.063 11.5253 155.819 11.9647 156.339 12.5213C156.86 13.0682 157.115 13.7908 157.115 14.6795C157.115 15.4119 156.928 16.0271 156.545 16.5349C156.163 17.0427 155.682 17.4236 155.093 17.6677C154.504 17.8923 153.895 18.0193 153.257 18.0193Z" fill="black"/>
<path d="M115.139 14.8455V4.29883H111.683L104.291 15.2361V17.7946H111.958V20.8512H115.148V17.7946H118.378V14.8455H115.139ZM111.958 14.8455H107.825L111.771 9.01552H111.968V14.8455H111.958Z" fill="#11BCEF"/>
<path d="M159.825 8.13131V5.58852H161.114C161.217 5.58852 161.33 5.61838 161.452 5.67811C161.573 5.73553 161.677 5.82512 161.762 5.94686C161.849 6.0663 161.893 6.2179 161.893 6.40166C161.893 6.58772 161.848 6.74621 161.758 6.87714C161.669 7.00577 161.56 7.1034 161.431 7.17001C161.305 7.23662 161.185 7.26993 161.073 7.26993H160.142V6.85647H160.9C160.976 6.85647 161.058 6.81857 161.145 6.74277C161.235 6.66697 161.279 6.55326 161.279 6.40166C161.279 6.24547 161.235 6.1398 161.145 6.08468C161.058 6.02955 160.981 6.00198 160.914 6.00198H160.384V8.13131H159.825ZM161.362 6.93227L161.996 8.13131H161.383L160.763 6.93227H161.362ZM160.79 9.64733C160.409 9.64733 160.052 9.57612 159.719 9.43371C159.385 9.29129 159.093 9.09375 158.84 8.84108C158.587 8.58841 158.39 8.29554 158.247 7.96248C158.105 7.62941 158.034 7.27223 158.034 6.89092C158.034 6.50962 158.105 6.15244 158.247 5.81937C158.39 5.48631 158.587 5.19344 158.84 4.94077C159.093 4.6881 159.385 4.49056 159.719 4.34814C160.052 4.20573 160.409 4.13452 160.79 4.13452C161.171 4.13452 161.529 4.20573 161.862 4.34814C162.195 4.49056 162.488 4.6881 162.74 4.94077C162.993 5.19344 163.19 5.48631 163.333 5.81937C163.475 6.15244 163.546 6.50962 163.546 6.89092C163.546 7.27223 163.475 7.62941 163.333 7.96248C163.19 8.29554 162.993 8.58841 162.74 8.84108C162.488 9.09375 162.195 9.29129 161.862 9.43371C161.529 9.57612 161.171 9.64733 160.79 9.64733ZM160.79 8.98579C161.176 8.98579 161.527 8.89161 161.844 8.70326C162.161 8.5149 162.414 8.26223 162.602 7.94525C162.791 7.62826 162.885 7.27682 162.885 6.89092C162.885 6.50503 162.791 6.15359 162.602 5.8366C162.414 5.51961 162.161 5.26694 161.844 5.07859C161.527 4.89024 161.176 4.79606 160.79 4.79606C160.404 4.79606 160.053 4.89024 159.736 5.07859C159.419 5.26694 159.166 5.51961 158.978 5.8366C158.789 6.15359 158.695 6.50503 158.695 6.89092C158.695 7.27682 158.789 7.62826 158.978 7.94525C159.166 8.26223 159.419 8.5149 159.736 8.70326C160.053 8.89161 160.404 8.98579 160.79 8.98579Z" fill="black"/>
</g>
<defs>
<clipPath id="clip0_5111_40965">
<rect width="164.465" height="25.7264" fill="white"/>
</clipPath>
</defs>
</svg>
